CD_DA
CD_TEXT { LANGUAGE_MAP { 0:EN }
    LANGUAGE 0 {
        TITLE "Colours"
        PERFORMER "Graffiti6"
        DISC_ID "A60C450C"
}}

//Track 1
TRACK AUDIO
    ISRC "GBC3Q1000024"
    CD_TEXT { LANGUAGE 0 {
        TITLE "Stone In My Heart"
    }}
    AUDIOFILE "01 - Stone In My Heart.wav" 00:00:00

//Track 2
TRACK AUDIO
    ISRC "GBC3Q1000016"
    CD_TEXT { LANGUAGE 0 {
        TITLE "Annie You Save Me"
    }}
    AUDIOFILE "02 - Annie You Save Me.wav" 00:00:00

//Track 3
TRACK AUDIO
    ISRC "GBC3Q1000015"
    CD_TEXT { LANGUAGE 0 {
        TITLE "Stare Into The Sun"
    }}
    AUDIOFILE "03 - Stare Into The Sun.wav" 00:00:00

//Track 4
TRACK AUDIO
    ISRC "GBC3Q1000018"
    CD_TEXT { LANGUAGE 0 {
        TITLE "This Man"
    }}
    AUDIOFILE "04 - This Man.wav" 00:00:00

//Track 5
TRACK AUDIO
    ISRC "GBC3Q1000013"
    CD_TEXT { LANGUAGE 0 {
        TITLE "Free"
    }}
    AUDIOFILE "05 - Free.wav" 00:00:00

//Track 6
TRACK AUDIO
    ISRC "GBC3Q1000019"
    CD_TEXT { LANGUAGE 0 {
        TITLE "Calm The Storm"
    }}
    AUDIOFILE "06 - Calm The Storm.wav" 00:00:00

//Track 7
TRACK AUDIO
    ISRC "GBC3Q1000020"
    CD_TEXT { LANGUAGE 0 {
        TITLE "Colours"
    }}
    AUDIOFILE "07 - Colours.wav" 00:00:00

//Track 8
TRACK AUDIO
    ISRC "GBC3Q1000021"
    CD_TEXT { LANGUAGE 0 {
        TITLE "Goodbye Geoffrey Drake"
    }}
    AUDIOFILE "08 - Goodbye Geoffrey Drake.wav" 00:00:00

//Track 9
TRACK AUDIO
    ISRC "GBC3Q1000022"
    CD_TEXT { LANGUAGE 0 {
        TITLE "Never Look Back"
    }}
    AUDIOFILE "09 - Never Look Back.wav" 00:00:00

//Track 10
TRACK AUDIO
    ISRC "GBC3Q1000014"
    CD_TEXT { LANGUAGE 0 {
        TITLE "Stop Mary"
    }}
    AUDIOFILE "10 - Stop Mary.wav" 00:00:00

//Track 11
TRACK AUDIO
    ISRC "GBC3Q1000012"
    CD_TEXT { LANGUAGE 0 {
        TITLE "Lay Me Down"
    }}
    AUDIOFILE "11 - Lay Me Down.wav" 00:00:00

//Track 12
TRACK AUDIO
    ISRC "GBC3Q1000023"
    CD_TEXT { LANGUAGE 0 {
        TITLE "Over You"
    }}
    AUDIOFILE "12 - Over You.wav" 00:00:00
